<svg width="38" height="41" viewBox="0 0 38 41" fill="none" xmlns="http://www.w3.org/2000/svg">
<path fill-rule="evenodd" clip-rule="evenodd" d="M29.4587 41H27.7106C29.0868 39.0961 30.4521 37.1325 31.6288 34.9545C33.0173 32.2718 34.2075 29.3523 35.0009 26.1962C35.0644 25.8805 35.1406 25.5649 35.2167 25.2493C35.331 24.7758 35.4452 24.3024 35.5167 23.829C35.5524 23.5921 35.5917 23.3551 35.6314 23.116C35.7238 22.559 35.8182 21.9903 35.8737 21.383L35.9927 20.0811L36.0324 19.4499L36.0721 19.1342V19.0553V19.0159V18.8581C36.0721 18.0296 36.072 17.2011 35.953 16.4121C35.5563 13.1375 33.8901 10.0208 31.3908 7.53535C31.2321 7.37754 31.0734 7.22959 30.9148 7.08165C30.7561 6.9337 30.5974 6.78575 30.4387 6.62794L29.923 6.15452L29.4072 5.76C28.7328 5.20767 27.9791 4.73424 27.2253 4.30027C25.6385 3.47178 23.9723 2.88 22.1871 2.56438C21.9689 2.52493 21.7407 2.50521 21.5126 2.48548C21.2845 2.46576 21.0564 2.44603 20.8382 2.40658L20.1638 2.32767L19.8068 2.28821H19.4894L18.1405 2.32767H17.4661L16.752 2.44602L15.2842 2.64328L14.9272 2.68273H14.8478H14.8081L14.6495 2.72219L13.975 2.88C13.1023 3.11671 12.2691 3.43232 11.436 3.82684C8.18299 5.44438 5.5647 8.44274 3.97784 11.8751C3.18441 13.5715 2.70833 15.3863 2.66866 17.2405C2.60255 18.0295 2.67418 18.8185 2.7458 19.6075C2.76014 19.7654 2.77447 19.9232 2.7877 20.0811C2.8128 20.2309 2.83692 20.3807 2.86098 20.5302C2.98901 21.3256 3.11561 22.1121 3.38277 22.8427C3.56321 23.5306 3.83485 24.1958 4.11126 24.8727C4.19947 25.0887 4.28818 25.3059 4.37455 25.5255L5.04895 26.7879C5.28698 27.1825 5.52502 27.5375 5.80272 27.9321C5.94961 28.195 6.20529 28.5012 6.45697 28.8026C6.54515 28.9082 6.63284 29.0133 6.71518 29.1156L6.9532 29.4312L7.07218 29.589L7.15156 29.6679L7.62759 30.1808C8.30201 30.8121 9.0161 31.4038 9.80953 31.8773C11.3567 32.8636 13.1419 33.4159 14.9668 33.4948C15.8793 33.5342 16.7917 33.4948 17.7042 33.337C17.9941 33.313 18.2546 33.245 18.5126 33.1777C18.6782 33.1346 18.8427 33.0917 19.0133 33.0608C19.1456 33.0345 19.313 32.9732 19.4805 32.9118C19.5643 32.8811 19.648 32.8504 19.7274 32.8241L20.0844 32.7057L20.2828 32.6663C20.3113 32.6521 20.3193 32.6481 20.3197 32.6488C20.3205 32.6501 20.297 32.6663 20.3225 32.6663L20.4018 32.6268C22.1474 31.9562 23.7739 31.0488 25.083 29.7863C26.4319 28.5633 27.503 27.0247 28.2171 25.3677C28.2964 25.1507 28.3758 24.9436 28.4551 24.7365C28.5344 24.5293 28.6138 24.3222 28.6931 24.1052C28.7092 24.0253 28.7318 23.9518 28.7556 23.8744C28.7906 23.7607 28.8282 23.6383 28.8518 23.474L28.9312 23.1583L28.9709 22.8033C29.1295 21.8959 29.1692 21.0279 29.1692 20.1205C29.1295 19.2132 29.0105 18.3452 28.7725 17.5167C28.5345 16.6488 28.2171 15.8597 27.8204 15.0707C27.4237 14.2816 26.9476 13.5321 26.3922 12.8614C26.2732 12.7036 26.1145 12.5063 25.9558 12.3485C25.8765 12.2696 25.8071 12.1907 25.7376 12.1118C25.6682 12.0329 25.5988 11.954 25.5194 11.8751L25.3211 11.6384L25.0434 11.4016L24.8054 11.1649L24.5673 11.0071C23.3375 10.0603 21.5919 9.46849 19.9257 9.23178C18.2199 8.99507 16.4743 9.07397 14.9668 9.58684C14.9027 9.61075 14.8386 9.63304 14.7735 9.65568C14.5164 9.74512 14.244 9.83988 13.8957 10.0603L13.5783 10.2181L13.499 10.2575L13.38 10.3364C13.3006 10.3956 13.2114 10.4449 13.1221 10.4942C13.0329 10.5436 12.9436 10.5929 12.8643 10.6521C12.1898 11.1255 11.5948 11.6778 11.079 12.2696C8.93678 14.7156 7.945 18.0296 8.5004 20.949C8.52024 21.0378 8.5376 21.1242 8.55496 21.2105C8.60701 21.4694 8.65907 21.7282 8.77808 22.0537L8.97643 22.6849L9.0161 22.7638L9.05576 22.8822L9.17479 23.1189C9.45249 23.7896 9.84923 24.3814 10.2856 24.9731C11.1981 26.0778 12.3485 26.9458 13.6577 27.4192C14.9668 27.9321 16.3553 28.0899 17.6645 27.9715L18.1009 27.8926H18.1009C18.1802 27.8926 18.2199 27.8926 18.3389 27.8532L18.6166 27.7742L18.8943 27.6953L19.053 27.6559L19.0927 27.6164L19.5687 27.4586C20.1638 27.2219 20.7589 26.9063 21.2746 26.5512C22.306 25.8411 23.0201 24.8548 23.4962 23.7501C23.6945 23.1978 23.8929 22.606 24.0119 22.0142C24.0633 21.8099 24.0814 21.6055 24.0986 21.4118C24.1079 21.3064 24.1169 21.2042 24.1309 21.1068C24.1706 20.7912 24.1706 20.5151 24.1706 20.1994V19.6866V19.4104V19.3315V19.2131C24.1508 19.0751 24.1409 18.937 24.1309 18.7989C24.121 18.6608 24.1111 18.5227 24.0913 18.3847L24.0912 18.3844C23.9722 17.8716 23.8532 17.3588 23.6152 16.8855C23.1788 15.9386 22.5044 15.1496 21.711 14.5184C20.9175 13.8871 19.9654 13.4532 19.1323 13.2559L19.053 13.2164H19.0133H18.934C18.934 13.177 18.7356 13.177 18.5769 13.177H18.5372H18.4976H18.4579H18.2992L17.9422 13.2164C17.4661 13.2559 17.0297 13.3348 16.5933 13.4532C14.9668 13.8871 13.975 15.0312 13.3403 16.3331C13.261 16.491 13.1816 16.6488 13.1419 16.8066C13.0626 16.9644 12.9833 17.2011 12.9436 17.3984L12.8245 17.714L12.7849 17.7929C12.8047 17.7337 12.8047 17.7337 12.7998 17.7436C12.7948 17.7534 12.7849 17.7732 12.7849 17.7534V17.7929L12.7452 17.9112C12.727 17.9836 12.7172 18.0477 12.708 18.1073C12.6972 18.1776 12.6874 18.2417 12.6659 18.3058L12.6631 18.3443C12.6244 18.882 12.5884 19.3829 12.6659 19.8838C12.8246 20.9096 13.261 21.8959 13.6577 22.6849C13.9853 23.3365 14.2858 23.8804 14.5146 24.2945C14.5629 24.3819 14.608 24.4635 14.6495 24.5392C14.8875 24.9731 15.0462 25.2099 15.0462 25.2099L14.7685 25.92C14.7685 25.92 14.6891 25.92 14.5701 25.8411C14.4511 25.8016 14.2527 25.7227 13.975 25.6044C13.499 25.3677 12.7849 24.9732 11.9518 24.263C11.5551 23.9079 11.1187 23.474 10.722 22.8822C10.3253 22.3299 9.92857 21.6197 9.69054 20.7912C9.41284 19.9627 9.33346 18.9764 9.45247 17.9112C9.46982 17.8077 9.49474 17.6967 9.52063 17.5814C9.55394 17.433 9.58884 17.2776 9.61117 17.1222L9.65083 16.9249V16.8855C9.65083 16.8723 9.65083 16.8723 9.65231 16.8723C9.65526 16.8723 9.66409 16.8723 9.69054 16.7671L9.7302 16.6882L9.84919 16.3726C9.87884 16.2989 9.90296 16.2251 9.92776 16.1493C9.9693 16.0224 10.0127 15.8896 10.0873 15.7414C10.2063 15.5047 10.3253 15.2285 10.4046 14.9918C10.8807 14.0055 11.5154 13.0586 12.4278 12.1907C12.8642 11.7567 13.4196 11.4017 13.9749 11.0466L13.975 11.0466C14.5701 10.731 15.1652 10.4548 15.7999 10.297C16.4347 10.1392 17.1091 10.0208 17.7438 9.94191L18.2199 9.90247H18.4579H18.4976H18.6563H18.7753H18.7754C18.934 9.90247 19.0134 9.90247 19.291 9.94191L19.6481 9.98137L19.8068 10.0208L19.9257 10.0603C21.3936 10.4153 22.6631 11.0466 23.8532 11.954C25.0434 12.8614 26.0749 14.0844 26.7493 15.5836C27.1063 16.3332 27.3046 17.1222 27.4633 17.9112C27.5157 18.1716 27.5335 18.4491 27.551 18.7212C27.56 18.8613 27.5689 19.0001 27.5824 19.1342V19.2921V19.4893V19.7655V20.2784C27.5625 20.4756 27.5526 20.6827 27.5427 20.8899C27.5328 21.097 27.5228 21.3041 27.503 21.5014L27.5029 21.5026C27.4632 21.8967 27.4236 22.2908 27.3443 22.6849C27.2253 23.474 26.9476 24.3025 26.6302 25.0915C26.2732 25.8806 25.8368 26.6696 25.2814 27.3797C24.726 28.0899 24.0119 28.7211 23.2978 29.2734C22.5441 29.8257 21.711 30.2203 20.8779 30.5753L20.2431 30.8121L20.1638 30.8515L20.0051 30.891L19.8464 30.9304L19.5687 31.0093L19.291 31.0882C19.2315 31.1079 19.172 31.1178 19.1125 31.1277C19.053 31.1375 18.9935 31.1474 18.934 31.1671L18.1802 31.2855C16.3156 31.4827 14.3717 31.246 12.5865 30.4964C10.8013 29.7863 9.13514 28.5633 7.90532 27.0247C7.31025 26.2356 6.75483 25.3677 6.39779 24.4208L6.23909 24.0658L6.15977 23.9079C6.15977 23.9474 6.12011 23.7501 6.12011 23.7501L6.0804 23.6712L5.88204 23.04C5.78689 22.7246 5.69177 22.3083 5.59663 21.892C5.57277 21.7876 5.5489 21.6831 5.52504 21.5803C4.77128 17.5562 6.12007 13.2953 8.8574 10.1786C9.57149 9.42904 10.3253 8.67945 11.198 8.08767C11.3202 7.9905 11.4574 7.90829 11.6003 7.82262C11.6895 7.76915 11.781 7.71434 11.8725 7.6537L12.0311 7.53535L12.1105 7.49589L12.2692 7.41698L12.5865 7.25918C12.9142 7.07814 13.4758 6.86387 13.9646 6.67737C14.0084 6.66066 14.0516 6.64417 14.0941 6.62794C16.1966 5.95726 18.3786 5.87835 20.4812 6.19397C21.5523 6.35177 22.5838 6.58849 23.6152 6.98301C24.6467 7.37753 25.6385 7.89041 26.5906 8.60054L26.9476 8.87671L27.265 9.15287L27.5427 9.38958L27.86 9.70521L27.8602 9.70534C28.0585 9.90256 28.2568 10.0998 28.4155 10.3364C28.6138 10.5337 28.7725 10.731 28.9312 10.9677C29.6056 11.8356 30.2007 12.743 30.7164 13.7293C31.1925 14.7156 31.5892 15.7414 31.8669 16.8066C32.1446 17.8718 32.2636 18.9764 32.3429 20.0811C32.3429 21.1858 32.3032 22.2904 32.0652 23.3951L31.9859 23.7896L31.9066 24.1841C31.8801 24.3419 31.8184 24.5347 31.7567 24.7275C31.7258 24.824 31.695 24.9205 31.6685 25.0126C31.5098 25.5649 31.3115 26.0778 31.0734 26.5907C30.161 28.6422 28.8518 30.4964 27.2253 32.0351C25.5988 33.5737 23.5755 34.7178 21.4729 35.4674L21.3936 35.5069C21.354 35.5069 21.2349 35.5463 21.2349 35.5463L21.0366 35.5857L20.6795 35.7041L20.6794 35.7041C20.4414 35.783 20.2034 35.8619 19.9257 35.9408C19.7574 35.9767 19.5855 36.0162 19.4121 36.056C19.0134 36.1476 18.607 36.2409 18.2199 36.2959C17.1091 36.4932 15.9586 36.4931 14.8081 36.4537C12.5072 36.2959 10.2459 35.5463 8.3417 34.3233C7.38959 33.7315 6.47711 33.0214 5.68368 32.1929L5.08861 31.5616L5.00929 31.4827L4.89025 31.3644L4.77127 31.2066L4.53325 30.891C4.41423 30.7282 4.29521 30.5821 4.17619 30.436C3.97783 30.1925 3.77948 29.949 3.58112 29.6285L3.58088 29.6281C3.26359 29.1548 2.94629 28.6815 2.66866 28.1688L1.91489 26.709C1.88543 26.6398 1.85596 26.5707 1.82655 26.5017C1.42048 25.5497 1.02608 24.6251 0.804122 23.6318C0.538056 22.8674 0.404154 22.0592 0.271107 21.2562C0.225614 20.9816 0.180221 20.7076 0.129678 20.4362C0.117735 20.2699 0.104894 20.1045 0.0921017 19.9398C0.0199052 19.0099 -0.0507462 18.1 0.0503543 17.1616C0.0900257 14.9523 0.724769 12.7825 1.63721 10.8493C2.54966 8.91616 3.77947 7.10137 5.20764 5.56274C6.67549 3.98466 8.38137 2.68274 10.3253 1.73589C11.2774 1.26246 12.3088 0.867948 13.3403 0.631235L14.1337 0.433975L14.3321 0.394521C14.4114 0.374795 14.4313 0.374794 14.4412 0.374793C14.4511 0.374793 14.4511 0.374793 14.4908 0.355066H14.5701L14.9272 0.315612L16.395 0.118351L17.1091 0.0394545H17.9025C18.4182 0.0394545 18.9736 0.0394521 19.4894 0H19.8861L20.2828 0.0394545L21.0366 0.118351C21.2391 0.149334 21.4416 0.168151 21.6417 0.186744C21.9512 0.215504 22.2549 0.243729 22.5441 0.315612C24.5673 0.710132 26.5112 1.38082 28.2964 2.36712C28.3652 2.41067 28.4338 2.45397 28.5021 2.4971C29.3001 3.00106 30.0617 3.48209 30.7561 4.06356L31.3512 4.53699L31.8669 5.0104C32.2239 5.32602 32.581 5.68109 32.8983 6.03616C34.2472 7.41698 35.4373 8.99506 36.3101 10.731C37.1829 12.4668 37.6986 14.3211 37.8969 16.1753C38.016 17.1222 38.0159 18.0296 37.9763 18.937V19.0948V19.2131V19.2921L37.9366 19.6077L37.8573 20.2389C37.8176 20.6729 37.7779 21.1068 37.7382 21.5014C37.6192 22.3693 37.4606 23.2373 37.3019 24.1052C37.1961 24.6838 37.055 25.2274 36.914 25.7709C36.8434 26.0427 36.7729 26.3145 36.7068 26.5907C35.7944 29.8652 34.5248 32.903 33.0173 35.6252C31.9232 37.5503 30.6902 39.3372 29.4587 41Z" fill="#253334"/>
</svg>
