<svg width="17" height="15" viewBox="0 0 17 15" fill="none" xmlns="http://www.w3.org/2000/svg">
<g opacity="0.75" clip-path="url(#clip0_508_6)">
<path d="M0.957179 14.7715C1.2028 14.7715 1.4156 14.6813 1.59509 14.4997C2.23051 13.8593 7.31189 8.73414 7.94681 8.09324C8.1263 7.9122 8.21629 7.69807 8.21629 7.44983C8.21629 7.2021 8.1263 6.98746 7.94681 6.80643C7.31189 6.16603 2.23051 1.04085 1.59509 0.399949C1.4156 0.218912 1.2028 0.128143 0.957179 0.128143C0.711562 0.128143 0.49876 0.218912 0.319271 0.399949C0.139782 0.580985 0.0497894 0.795621 0.0497894 1.04335C0.0497894 2.32465 0.0497894 12.575 0.0497894 13.8563C0.0497894 14.1045 0.139782 14.3187 0.319271 14.4997C0.49876 14.6813 0.711562 14.7715 0.957179 14.7715Z" fill="white"/>
</g>
<g opacity="0.75" clip-path="url(#clip1_508_6)">
<path d="M8.95718 14.7715C9.2028 14.7715 9.4156 14.6813 9.59509 14.4997C10.2305 13.8593 15.3119 8.73414 15.9468 8.09324C16.1263 7.9122 16.2163 7.69807 16.2163 7.44983C16.2163 7.2021 16.1263 6.98746 15.9468 6.80643C15.3119 6.16603 10.2305 1.04085 9.59509 0.399949C9.4156 0.218912 9.2028 0.128143 8.95718 0.128143C8.71156 0.128143 8.49876 0.218912 8.31927 0.399949C8.13978 0.580985 8.04979 0.795621 8.04979 1.04335C8.04979 2.32465 8.04979 12.575 8.04979 13.8563C8.04979 14.1045 8.13978 14.3187 8.31927 14.4997C8.49876 14.6813 8.71156 14.7715 8.95718 14.7715Z" fill="white"/>
</g>
<defs>
<clipPath id="clip0_508_6">
<rect width="8.36539" height="15" fill="white"/>
</clipPath>
<clipPath id="clip1_508_6">
<rect width="8.36539" height="15" fill="white" transform="translate(8.00006 3.05176e-05)"/>
</clipPath>
</defs>
</svg>
