<svg width="75" height="75" viewBox="0 0 75 75" fill="none" xmlns="http://www.w3.org/2000/svg">
<path d="M37.5001 3.05176e-05C58.1773 3.05176e-05 75.0001 16.8227 75.0001 37.5C75.0001 58.1773 58.1773 75 37.5001 75C16.8228 75 6.10352e-05 58.1773 6.10352e-05 37.5C6.10352e-05 16.8227 16.8228 3.05176e-05 37.5001 3.05176e-05ZM43.2693 49.0385C43.2693 49.8035 43.5732 50.5373 44.1142 51.0782C44.6551 51.6192 45.3889 51.9231 46.1539 51.9231C46.919 51.9231 47.6527 51.6192 48.1936 51.0782C48.7346 50.5373 49.0385 49.8035 49.0385 49.0385V25.9616C49.0385 25.1965 48.7346 24.4628 48.1936 23.9218C47.6527 23.3809 46.919 23.077 46.1539 23.077C45.3889 23.077 44.6551 23.3809 44.1142 23.9218C43.5732 24.4628 43.2693 25.1965 43.2693 25.9616V49.0385ZM25.9616 49.0385C25.9616 49.8035 26.2655 50.5373 26.8065 51.0782C27.3475 51.6192 28.0812 51.9231 28.8462 51.9231C29.6113 51.9231 30.345 51.6192 30.8859 51.0782C31.4269 50.5373 31.7308 49.8035 31.7308 49.0385V25.9616C31.7308 25.1965 31.4269 24.4628 30.8859 23.9218C30.345 23.3809 29.6113 23.077 28.8462 23.077C28.0812 23.077 27.3475 23.3809 26.8065 23.9218C26.2655 24.4628 25.9616 25.1965 25.9616 25.9616V49.0385Z" fill="white"/>
</svg>
