<svg width="75" height="75" viewBox="0 0 75 75" fill="none" xmlns="http://www.w3.org/2000/svg">
<circle cx="37.5" cy="37.5" r="37.5" fill="white"/>
<path d="M31.5556 50C31.9766 50 32.3414 49.8459 32.6491 49.536C33.7384 48.4426 42.4496 39.6926 43.538 38.5985C43.8457 38.2894 44 37.9238 44 37.5C44 37.0771 43.8457 36.7106 43.538 36.4015C42.4496 35.3082 33.7384 26.5582 32.6491 25.464C32.3414 25.155 31.9766 25 31.5556 25C31.1345 25 30.7697 25.155 30.462 25.464C30.1543 25.7731 30 26.1396 30 26.5625C30 28.75 30 46.25 30 48.4375C30 48.8613 30.1543 49.2269 30.462 49.536C30.7697 49.8459 31.1345 50 31.5556 50Z" fill="#253334"/>
</svg>
