<svg width="17" height="15" viewBox="0 0 17 15" fill="none" xmlns="http://www.w3.org/2000/svg">
<g opacity="0.75" clip-path="url(#clip0_508_5)">
<path d="M15.4082 14.7715C15.1626 14.7715 14.9498 14.6813 14.7703 14.4997C14.1349 13.8593 9.05349 8.73414 8.41856 8.09324C8.23907 7.9122 8.14908 7.69807 8.14908 7.44983C8.14908 7.2021 8.23907 6.98746 8.41856 6.80643C9.05349 6.16603 14.1349 1.04085 14.7703 0.399949C14.9498 0.218912 15.1626 0.128143 15.4082 0.128143C15.6538 0.128143 15.8666 0.218912 16.0461 0.399949C16.2256 0.580985 16.3156 0.795621 16.3156 1.04335C16.3156 2.32465 16.3156 12.575 16.3156 13.8563C16.3156 14.1045 16.2256 14.3187 16.0461 14.4997C15.8666 14.6813 15.6538 14.7715 15.4082 14.7715Z" fill="white"/>
</g>
<g opacity="0.75" clip-path="url(#clip1_508_5)">
<path d="M7.40819 14.7715C7.16258 14.7715 6.94978 14.6813 6.77029 14.4997C6.13487 13.8593 1.05349 8.73414 0.418562 8.09324C0.239073 7.9122 0.14908 7.69807 0.14908 7.44983C0.14908 7.2021 0.239073 6.98746 0.418562 6.80643C1.05349 6.16603 6.13487 1.04085 6.77029 0.399949C6.94978 0.218912 7.16258 0.128143 7.40819 0.128143C7.65381 0.128143 7.86661 0.218912 8.0461 0.399949C8.22559 0.580985 8.31558 0.795621 8.31558 1.04335C8.31558 2.32465 8.31558 12.575 8.31558 13.8563C8.31558 14.1045 8.22559 14.3187 8.0461 14.4997C7.86661 14.6813 7.65381 14.7715 7.40819 14.7715Z" fill="white"/>
</g>
<defs>
<clipPath id="clip0_508_5">
<rect width="8.36539" height="15" fill="white" transform="matrix(-1 0 0 1 16.3653 3.05176e-05)"/>
</clipPath>
<clipPath id="clip1_508_5">
<rect width="8.36539" height="15" fill="white" transform="matrix(-1 0 0 1 8.3653 3.05176e-05)"/>
</clipPath>
</defs>
</svg>
