<svg xmlns="http://www.w3.org/2000/svg" width="375" height="224" fill="none" viewBox="0 0 375 224">
  <g opacity=".3">
    <path fill="#D3D6D6" d="M404.344 10.454c-9.05 5.064-17.195 11.686-26.636 16.06-10.464 4.847-21.662 8.124-32.628 11.611-10.712 3.407-21.228 7.08-31.37 11.966-9.492 4.572-18.571 9.892-27.489 15.488-8.835 5.543-18.396 11.617-24.255 20.482l-.372-1.506c3.704 2.474 9.553 1.491 13.694 1.038 4.129-.452 8.242-1.227 12.398-1.38 13.212-.487 26.209-1.596 39.026-5.047 23.77-6.404 44.052-20.162 60.727-38.05 9.039-9.695 16.983-20.34 24.247-31.413.723-1.104 2.251.4 1.635 1.338-13.196 20.119-28.803 39.144-48.699 52.973-21.922 15.237-47.924 21.623-74.369 22.288-5.37.136-10.614 1.073-15.955 1.576-4.397.413-9.729.931-13.596-1.65-.412-.275-.658-1.073-.372-1.505 4.91-7.428 12.306-12.865 19.629-17.733 8.616-5.726 17.538-11.077 26.714-15.854 10.253-5.337 20.857-9.64 31.842-13.212 11.185-3.637 22.494-6.944 33.41-11.355 11.382-4.597 20.826-12.165 31.457-18.113 1.016-.568 1.987 1.425.962 1.998Z"/>
    <path fill="#D3D6D6" d="M261.173 85c21.79-9.288 45.475-12.941 67.288-22.15 11.169-4.715 21.512-11.285 31.795-17.653 5.402-3.347 10.735-6.812 15.882-10.54 4.796-3.474 9.274-7.343 14.02-10.879 9.982-7.438 20.966-13.954 29.266-23.38.809-.92 2.098.875 1.352 1.722-7.399 8.404-16.979 14.498-25.994 20.99-9.558 6.88-18.477 14.446-28.407 20.834-10.342 6.654-20.969 13.51-32.11 18.748-10.545 4.959-21.714 8.377-32.892 11.575-13.228 3.786-26.553 7.324-39.238 12.731-1.078.46-2.036-1.54-.962-1.998Zm114.339 73.977c-26.123-11.146-55.105-6.998-82.668-9.28-13.778-1.14-26.682-4.566-39.809-8.691-10.133-3.186-20.647-5.934-31.203-7.242-12.361-1.532-25.748 1.787-37.2 6.304l-.193-1.483c6.633 3.367 13.799 5.572 20.693 8.326 7.482 2.987 14.416 7.859 22.494 9.114 5.762.895 11.883.53 17.683.275 5.708-.251 10.9-1.177 16.445-2.46 8.606-1.993 17.335-3.606 25.8-6.162.838-.254 1.545 1.249.722 1.498-7.346 2.219-14.889 3.734-22.371 5.406-6.074 1.358-11.836 2.844-18.067 3.208-5.869.342-11.843.516-17.715.091-8.094-.584-14.693-4.917-21.928-8.09-7.93-3.477-16.359-5.814-24.092-9.738-.455-.232-.845-1.227-.193-1.484 10.218-4.029 22.138-7.216 33.194-6.797 10.564.401 21.268 3.377 31.373 6.285 5.311 1.529 10.499 3.442 15.817 4.942a148.362 148.362 0 0 0 22.571 4.514c14.469 1.739 29.071 1.309 43.608 1.776 15.469.497 31.009 2.092 45.375 8.22.79.338.628 1.879-.336 1.468Z"/>
    <path fill="#D3D6D6" d="M184.439 138.585c6.095 2.611 13.922 1.946 20.392 1.935 3.086-.006 6.179-.082 9.264.041 4.529.18 8.894 1.259 13.272 2.355 13.074 3.277 26.769 3.92 40.189 4.546 6.689.313 13.479.663 20.17.165.843-.062 1.299 1.53.378 1.599-12.875.957-26.176-.287-39.001-1.408-6.085-.532-12.223-1.077-18.185-2.452-5.21-1.203-10.358-2.837-15.726-3.17-3.081-.192-6.186-.089-9.269-.08-6.947.02-15.284.736-21.82-2.063-.791-.339-.628-1.88.336-1.468Zm179.859 16.058c-7.71 4.99-16.156 8.655-24.027 13.364-5.891 3.525-11.454 7.618-16.688 12.056-10.578 8.97-22.458 20.904-24.408 35.306l-.867-1.126c3.856-.948 6.805-3.545 9.828-5.971 2.843-2.28 5.917-4.131 9.116-5.871 7.199-3.918 13.945-8.026 19.988-13.624 5.57-5.159 10.791-11.013 15.03-17.319 3.94-5.863 7.212-12.142 11.053-18.066.539-.831 1.686.298 1.228 1.003-3.988 6.15-7.352 12.691-11.507 18.733-4.402 6.401-9.732 12.362-15.482 17.576-6.086 5.519-12.855 9.513-20.026 13.434-3.715 2.032-7.042 4.372-10.342 7.009-2.594 2.072-5.243 3.892-8.508 4.695-.6.147-.928-.679-.868-1.126 1.946-14.375 13.619-26.389 24.129-35.414 5.192-4.458 10.723-8.57 16.554-12.157 8.163-5.021 17.022-8.79 25.076-14.001.724-.469 1.46 1.022.721 1.499Z"/>
    <path fill="#D3D6D6" d="M297.99 214.396c8.584-10.348 17.313-21.313 28.402-29.068 12.592-8.807 22.936-20.181 35.275-29.279.748-.551 1.69.794 1.014 1.292-11.916 8.786-21.82 19.937-34.001 28.397-11.623 8.074-20.692 19.121-29.676 29.95-.583.703-1.553-.641-1.014-1.292Zm4.818-64.832c-6.601-12.657-14.654-23.788-25.224-33.407-9.854-8.97-21.064-18.29-34.414-21.15l.589-1.08c2.645 6.407 8.078 10.978 12.674 15.963 5.102 5.536 9.438 11.517 15.052 16.612a189.16 189.16 0 0 0 14.67 12.013c5.362 3.963 11.064 7.852 17.42 10.028.816.279.652 1.806-.337 1.467-6.196-2.121-11.787-5.887-17.044-9.721-5.591-4.077-11.009-8.492-16.094-13.188-5.522-5.099-9.829-11.093-14.916-16.566-4.633-4.985-9.969-9.604-12.622-16.033-.18-.435-.062-1.22.589-1.08 13.605 2.914 25.059 12.34 35.103 21.481 10.776 9.808 19.021 21.181 25.751 34.085.484.927-.715 1.499-1.197.576Z"/>
    <path fill="#D3D6D6" d="M245.645 95.141c10.206 7.525 18.842 16.803 28.036 25.474 9.968 9.401 20.216 18.5 30.06 28.034.638.619.108 2.007-.67 1.254-9.843-9.534-20.092-18.633-30.06-28.034-9.193-8.671-17.829-17.949-28.035-25.474-.732-.54-.204-1.897.669-1.254Zm103.493 55.753c-4.856-3.707-8.862-8.28-12.753-12.958-3.936-4.732-8.203-9.217-11.978-14.075-3.596-4.627-6.481-9.596-8.948-14.901-2.338-5.029-5.18-10.107-5.1-15.81.009-.618.56-.819 1.034-.498 2.318 1.573 4.07 3.644 5.865 5.768 2.485 2.946 5.186 4.995 8.421 7.051 5.076 3.228 9.635 7.366 13.433 12.031 7.433 9.131 10.401 21.336 11.06 32.894.062 1.082-1.347.638-1.398-.259-.677-11.885-3.904-24.078-11.888-33.176-3.995-4.551-8.593-8.072-13.644-11.347-2.288-1.484-4.284-3.155-6.074-5.213-2.027-2.33-3.858-4.74-6.445-6.495l1.033-.498c-.081 5.8 3.081 11.075 5.455 16.186 2.469 5.315 5.625 10.227 9.318 14.773 3.492 4.297 7.275 8.357 10.818 12.615 3.804 4.572 7.713 9.035 12.461 12.658.722.551.193 1.912-.67 1.254Z"/>
    <path fill="#D3D6D6" d="M311.997 93.734c-.412 1.938 1.662 4.697 2.629 6.195 1.279 1.982 2.685 3.881 4.126 5.746 3.897 5.044 7.83 10.078 11.858 15.017 7.408 9.084 15.589 18.257 19.536 29.497.36 1.025-1.029 1.057-1.346.156-4.527-12.894-14.819-23.089-23.084-33.639-3.467-4.425-7.096-8.764-10.361-13.344-1.841-2.583-5.451-6.818-4.715-10.28.218-1.024 1.535-.184 1.357.652Zm15.936 56.912c-5.143 6.42-11.472 11.64-17.906 16.707-6.466 5.09-12.613 10.626-19.224 15.52-6.407 4.742-13.248 8.564-20.56 11.716-6.929 2.989-13.967 6.779-21.732 6.398-.513-.026-.916-.879-.624-1.294 2.267-3.223 5.285-5.577 8.332-8.017 3.421-2.738 6.121-5.718 8.57-9.362 4.818-7.167 10.441-13.588 17.253-18.946 12.656-9.956 29.353-13.717 45.196-14.167.842-.025 1.295 1.572.377 1.598-15.969.454-32.704 4.256-45.331 14.477-6.671 5.4-11.971 11.76-16.787 18.813-2.164 3.17-4.593 5.901-7.575 8.327-3.15 2.563-6.443 4.918-8.808 8.28l-.622-1.294c8.138.399 15.934-4.056 23.178-7.231 7.301-3.197 14.092-7.41 20.374-12.305 5.998-4.673 11.742-9.678 17.713-14.393 6.181-4.882 12.219-9.948 17.163-16.119.569-.71 1.541.634 1.013 1.292Z"/>
    <path fill="#D3D6D6" d="M248.676 199.051c2.45.651 5.583-1.414 7.606-2.562 2.985-1.693 5.829-3.641 8.61-5.649 6.745-4.867 13.411-9.879 20.029-14.917 13.107-9.974 26.159-21.591 42.145-26.673.835-.265 1.543 1.237.721 1.499-17.242 5.482-31.063 18.447-45.284 29.049-6.24 4.651-12.407 9.446-18.795 13.895-2.841 1.978-5.756 3.92-8.869 5.45-1.775.873-4.105 2.034-6.144 1.493-.803-.212-.965-1.836-.019-1.585Z"/>
    <path fill="#D3D6D6" d="M310.717 266.563c-.326.272-.642.544-.95.81-1.095.944-2.13 1.836-3.462 2.601-1.836 1.056-3.979 2.269-6.159 3.311-3.875 1.848-8.011 3.083-11.545 4.048-3.779 1.03-7.899 2.003-12.393 2.154-1.952.065-3.931.041-5.846.018-2.509-.031-5.106-.063-7.65.108a1.076 1.076 0 0 1-.127.001c-3.076 6.406-5.182 12.526-6.434 18.698a78.397 78.397 0 0 0-.54 28.36c-.631.076-1.263.143-1.894.2a80.92 80.92 0 0 1-.9-8.961c-1.9-1.136-3.608-2.577-5.261-3.971-2.18-1.837-4.433-3.738-7.098-4.891-1.092-.473-2.184-.938-3.276-1.404-4.508-1.921-9.169-3.908-13.58-6.3-5.388-2.922-9.912-5.903-13.829-9.113-4.682-3.837-8.502-8.441-11.714-12.456a54.115 54.115 0 0 0-6.903-7.187c-2.199-1.901-4.271-3.831-5.454-6.533a.903.903 0 0 1 .069-.848 1.03 1.03 0 0 1 .811-.482c11.075-.509 21.666 6.371 28.671 11.591a108.59 108.59 0 0 1 12.325 10.747c3.913 3.963 7.37 8.403 10.714 12.696l1.466 1.881c2.27 2.92 4.616 5.938 7.415 8.347a66.683 66.683 0 0 0 1.976 1.616c1.045.834 2.119 1.69 3.104 2.637-1.489-13.263-7.559-25.411-13.434-37.172-1.056-2.113-2.11-4.221-3.135-6.331-2.553-5.253-4.583-9.928-6.203-14.291-3.476-3.564-6.837-7.342-10.087-10.996l-.347-.39c-.735-.826-1.493-1.646-2.254-2.471-2.66-2.882-5.41-5.861-7.38-9.284-2.741-4.759-2.987-10.273-3.002-15.067-.014-4.164-.009-8.33-.005-12.496l.006-6.051c.001-.349.227-.67.591-.836.122-.055.246-.088.368-.099a.863.863 0 0 1 .647.197c6.47 5.582 12.04 10.817 14.67 18.379 1.681 4.829 2.349 9.998 2.997 14.997.425 3.292.866 6.695 1.591 9.949 1.775 7.963 4.714 16.208 8.983 25.207.2.42.401.841.604 1.262.002-3.218.456-6.39.964-9.378.783-4.606 1.792-9.074 3.003-13.276.849-2.951 2.056-5.769 3.223-8.493.768-1.791 1.562-3.643 2.244-5.512.242-.661.474-1.327.708-1.993 1.222-3.494 2.486-7.106 5.013-10.018.227-.261.611-.379.962-.299a.808.808 0 0 1 .613.587c2.332 8.988.125 18.457-2.128 26.627-2.501 9.07-6.623 17.52-12.604 25.833.567 1.143 1.137 2.283 1.707 3.424 2.168 4.334 4.409 8.818 6.408 13.331 2.907 6.558 4.868 12.294 6.066 17.785a82.072 82.072 0 0 1 8.58-29.907l.156-.291c2.617-5.094 5.714-10.079 8.709-14.897a492.916 492.916 0 0 0 3.982-6.483c-4.603-11.233-5.912-21.565-3.888-30.715 1.08-4.884 3.242-9.373 6.426-13.341.837-1.044 1.733-2.073 2.601-3.069 2.738-3.147 5.569-6.4 6.861-10.488.144-.457.741-.74 1.182-.685.366.045.617.314.642.737.576 9.469 1.171 19.261-.311 28.808-1.165 7.506-3.962 15.232-8.551 23.619-2.286 4.179-4.836 8.288-7.301 12.262-1.951 3.145-3.969 6.396-5.841 9.658a108.64 108.64 0 0 0-.899 1.596c4.823-3.009 11.058-4.211 16.161-5.193 9.08-1.75 18.763-3.493 28.586-3.908a.858.858 0 0 1 .852.536c.129.335.023.712-.272.958ZM32.07 198.218c6.244-.298 12.204-1.674 18.28-3.018 6.862-1.517 14.388-2.819 20.948.465.1.05.2.061.3.069 7.965 8.045 15.855 16.164 23.563 24.468-3.27.475-6.498 1.048-9.68 1.956-2.095-3.909-6.892-3.581-10.38-1.764-2.741 1.43-6.653 4.425-6.441 7.942.01.153.042.29.067.433-.066.008-.122-.001-.197.024-10.026 3.24-20.61 4.463-31.076 5.265-9.497.729-19.57 1.891-28.426-2.413-.04-.019-.081-.013-.122-.026-1.82-3.91-3.077-8.038-3.339-12.024 12.438 1.42 24.13 6.954 36.736 7.366 5.668.184 10.764-1.033 15.899-3.358 3.533-1.599 8.354-3.66 9.76-7.636 1.582-4.469-2.578-7.675-6.299-8.976-4.768-1.669-10.141-1.848-15.138-1.441-12.66 1.031-25.465 5.971-37.585-.293-7.514-3.884-9.26-11.127-8.894-18.791 7.105 10.03 20.35 12.308 32.023 11.752Z"/>
    <path fill="#D3D6D6" d="M22.959 142.846c7.889 10.775 16.59 20.711 26.004 30.174 6.38 6.414 12.788 12.798 19.164 19.212-10.237-2.583-21.458 2.518-31.644 3.612-12.543 1.348-28.492-.081-35.713-11.996a.772.772 0 0 0-.483-.365c.494-4.483 1.538-8.979 2.426-12.918 3.905 1.786 7.061 5.164 10.11 8.067 3.299 3.142 6.703 6.446 10.81 8.516 6.183 3.117 16.584 2.2 19.533-5.165 2.548-6.358-3.873-12.685-8.422-16.125-7.931-5.999-18.859-6.351-25.264-14.615-7.463-9.632-4.558-21.546-3.33-32.788 1.68 3.814 4.34 7.227 6.828 10.509 3.442 4.545 6.613 9.282 9.981 13.882ZM36.36 236.17c10.939-.807 21.989-2.066 32.466-5.454a.993.993 0 0 0 .538-.445c1.697 2.202 6.026 2.234 8.357 1.425 3.103-1.077 7.927-3.906 8.116-7.63 3.323-.94 6.688-1.485 10.107-1.964.255-.036.466-.185.63-.383.324.352.653.7.977 1.052 7.096 7.722 13.419 16.106 20.423 23.907a137.913 137.913 0 0 0 5.355 5.623c-4.479-.185-8.642 2.081-12.336 5.012-2.325 1.845-4.453 3.916-6.71 5.842-3.562 3.037-7.536 5.546-11.777 7.525-7.528 3.513-15.828 5.693-24.035 6.887-6.792.988-13.61.824-20.276-.884-3.76-.962-7.19-2.38-10.55-4.314-1.708-.984-3.401-1.971-5.16-2.818 5.493-.281 11.073.404 16.544-.281 7.175-1.129 13.46-4.569 19.726-8.058 4.217-2.35 9.45-3.846 13.163-6.982 2.663-2.249 3.602-5.643 1.603-8.701-2.476-3.788-7.8-3.936-11.834-3.56-10.003.933-19.384 5.371-29.12 7.578-4.894 1.11-10.058 1.841-15.046.945-4.507-.811-7.842-3.384-10.787-6.796a53.978 53.978 0 0 1-6.341-9.153c8.259 3.11 17.262 2.27 25.967 1.627Z"/>
    <path fill="#D3D6D6" d="M39.467 125.924c-.65 4.11-1.017 8.183.124 12.232 2.322 8.235 7.227 18.339 4.728 27.052-7.763-8.181-14.85-16.868-21.447-26.021-2.913-4.041-5.712-8.149-8.715-12.123-2.734-3.619-5.62-7.359-7.073-11.707 4.661 3.297 10.58 3.568 16.293 3.181 6.369-.432 12.714-.851 19.086-1.14-1.858 2.389-2.53 5.572-2.996 8.526Zm88.712 128.159c.028-.073.051-.151.063-.233.698-4.846 4.192-7.163 7.956-9.703 4.084-2.756 8.375-5.149 12.657-7.577 7.859-4.455 15.449-9.151 20.882-16.529 4.6-6.245 8.047-13.728 9.45-21.377 1.46-7.954.521-16.107 1.828-24.073 5.607 10.187 7.673 21.694 6.366 33.305-1.256 11.165-4.866 23.797-12.224 32.493-4.292 5.073-9.817 8.934-15.771 11.817-2.946 1.426-5.992 2.632-9.088 3.686-1.501.511-3.017.983-4.539 1.427-1.132.33-2.638.493-3.617 1.163-1.254.855-1.868 2.475-1.377 3.924.698 2.062 3.755 3.178 5.474 4.213 5.794 3.483 11.757 6.676 17.797 9.708 6.218 3.121 12.52 6.068 18.838 8.981 5.158 2.378 10.312 5.235 15.755 6.936a266.29 266.29 0 0 1-1.503 1.865c-18.957-7.305-37.689-15.892-54.241-27.79-5.206-3.742-10.086-7.849-14.706-12.236Z"/>
    <path fill="#D3D6D6" d="M151.321 214.965c5.165-2.757 9.688-6.828 13.49-11.245 6.255-7.263 10.199-16.137 13.89-24.971-.561 6.699-.084 13.483-1.339 20.118-1.663 8.789-6.117 17.543-12.251 24.047-6.712 7.116-16.033 11.225-24.314 16.162-5.694 3.394-12.374 6.863-14.101 13.578a172.566 172.566 0 0 1-10.119-10.761c-2.876-3.33-5.472-7.271-8.3-10.631 4.421-3.871 6.826-11.209 8.907-15.217l.009.002c3.894 1.362 7.439-4.093 8.77-7.248 1.455-2.095 3.104-6.14 2.013-8.952 6.692-9.059 12.329-18.678 15.045-29.699 2.466-10.003 2.695-20.253 2.944-30.504a26.686 26.686 0 0 1 4.08 7.127c2.28 5.935 2.448 12.471 1.734 18.722-1.296 11.334-5.067 23.145-9.687 33.558-1.594 3.597-9.687 15.262-3.799 18.311 3.721 1.926 9.748-.645 13.028-2.397Z"/>
    <path fill="#D3D6D6" d="M141.452 169.1c-2.549 10.918-8.031 20.6-14.626 29.558a4.082 4.082 0 0 0-1.241-.743c-5.314-2.02-8.295 3.888-9.833 7.833-.892 2.284-2.887 8.373-.528 10.65-2.323 4.846-3.955 10.469-8.209 14.019-.031.026-.048.062-.076.092-3.902-4.623-7.843-9.212-12.01-13.623a2786.798 2786.798 0 0 0-6.623-6.99c.057-.207.075-.42-.002-.621-1.238-3.218.126-7.311 1.212-10.399 1.278-3.634 3.197-7.011 4.918-10.447 3.917-7.811 7.375-15.719 9.092-24.331 1.681-8.44 2.155-17.145 1.594-25.725-.271-4.143-.387-8.237-1.155-12.325-.629-3.35-1.384-6.709-1.11-10.115l5.519 1.652c1.029.308 3.253.659 3.872 1.283.938.946 1.701 3.576 2.219 4.921a33.25 33.25 0 0 1 1.551 5.289c.692 3.38.874 6.842.662 10.282-.445 7.215-2.484 14.222-4.793 21.033-2.302 6.796-4.966 13.471-7.035 20.344-.962 3.194-4.405 11.918.75 13.417 4.246 1.234 9.421-3.388 11.714-6.427 2.682-3.559 4.691-7.862 6.851-11.752 7.395-13.314 12.768-27.663 14.396-42.891 2.071 1.369 3.976 2.924 5.66 4.675-.031.094-.062.187-.065.294-.258 10.375-.332 20.888-2.704 31.047Z"/>
    <path fill="#D3D6D6" d="M65.67 143.511c-.157-3.563-2.54-5.951-5.632-7.33a.91.91 0 0 0-.766.003c-6.21-.709-7.725 6.952-7.569 11.789.12 3.719 1.921 7.41 5.937 6.056.22.052.477.015.72-.13 3.703-2.207 7.518-5.689 7.31-10.388Zm37.568-5.454c.665 9.818.127 19.863-2.264 29.438-2.306 9.232-6.829 17.554-11.02 26.023-1.934 3.905-4.307 9.224-3.967 13.948-5.291-5.55-10.61-11.074-15.998-16.53-8.05-8.155-16.362-16.052-24.313-24.304.028-.052.066-.094.087-.154 2.702-7.63-.444-16.077-2.568-23.474-1.29-4.494-2.809-8.324-2.395-13.089.323-3.714.517-9.393 3.536-12.064.169-.149.269-.346.334-.55.36-.015.716-.034 1.075-.047 7.419-.276 15.107.026 21.721 3.79 7.043 4.007 10.366 10.91 11.032 18.779.624 7.353-.574 14.719-1.186 22.032-.378 4.518-2.252 12.751 2.026 16.027 5.026 3.849 10.51-2.319 13.117-6.083 3.784-5.461 5.416-12.096 5.498-18.682.093-7.463-2.138-14.271-3.284-21.542-1.01-6.408-1.016-13.342-3.866-19.249l9.497 2.842.806.241c-.451 3.555.234 7.073.898 10.565.764 4.028.956 8 1.234 12.083ZM396.776 212.1c-12.974 8.342-21.241 21.608-30.032 33.897-4.364 6.1-8.956 12.024-14.294 17.31-5.818 5.763-12.516 10.163-18.881 15.238-3.592 2.864-6.76 6.135-8.84 10.277-2.198 4.375-3.252 9.213-4.299 13.963l-1.039-1.075c4.892-2.64 9.787-5.271 14.674-7.919 4.46-2.417 8.86-4.921 11.591-9.36 2.535-4.121 3.854-9.009 5.495-13.528 1.603-4.417 3.204-8.838 4.609-13.324.313-.999 1.614-.171 1.357.652-1.547 4.939-3.329 9.8-5.096 14.662-1.629 4.482-2.958 9.335-5.641 13.329-2.477 3.689-6.179 6.087-10 8.202-5.391 2.983-10.845 5.859-16.267 8.785-.611.328-1.154-.559-1.04-1.077 1.685-7.636 3.643-15.231 9.204-21.038 5.758-6.016 13.322-10.092 19.517-15.647 12.097-10.845 20.103-24.815 30.019-37.484 5.217-6.666 11.088-12.762 18.242-17.361.726-.468 1.461 1.022.721 1.498Z"/>
    <path fill="#D3D6D6" d="M382.379 224.762c-5.122 1.688-10.421 2.343-15.77 2.855-5.697.545-11.383 1.529-17.104 1.762-5.119.206-10.055-.411-15.1-1.194-4.248-.66-8.552-1.315-12.148-3.829-.383-.268-.576-1.163-.026-1.376 2.225-.865 4.502-1.148 6.865-1.392 3.016-.312 5.679-1.037 8.463-2.233 4.916-2.114 10.052-3.54 15.391-4.059 10.275-.997 20.526 2.768 29.236 7.983.722.433.555 2.001-.336 1.468-8.836-5.292-19.085-8.983-29.49-7.747-5.258.625-10.088 2.202-14.947 4.23-4.695 1.96-9.792 1.433-14.461 3.248l-.026-1.377c3.797 2.655 8.608 3.024 13.051 3.748 5.07.827 10.103 1.175 15.234.814 4.851-.341 9.666-1.132 14.508-1.596 5.396-.516 10.764-1.099 15.939-2.803.832-.275 1.542 1.228.721 1.498Z"/>
    <path fill="#D3D6D6" d="M323.144 222.978c1.126 1.15 3.471 1.11 4.967 1.184 2.163.108 4.34.028 6.501-.092a584.044 584.044 0 0 0 16.46-1.148c10.2-.855 20.872-2.361 30.936.299.802.212.966 1.835.019 1.585-11.358-3.002-23.434-.744-34.932.038-4.955.336-9.928.819-14.895.94-2.742.067-7.592.627-9.725-1.552-.617-.631-.086-2.026.669-1.254Z"/>
  </g>
</svg>
