<svg width="440" height="451" viewBox="120 116 200 210.89" fill="none" xmlns="http://www.w3.org/2000/svg">
<g filter="url(#filter0_d_1_12)">
<path d="M214.921 124.288V121.152C214.921 118.306 217.195 116 220 116C222.805 116 225.079 118.306 225.079 121.152V124.288C225.079 127.133 222.805 129.44 220 129.44C217.195 129.44 214.921 127.133 214.921 124.288ZM165.805 140.396C166.745 142.05 168.452 142.974 170.209 142.974C171.07 142.974 171.943 142.752 172.742 142.284C175.172 140.862 176.005 137.711 174.604 135.247L173.059 132.531C171.657 130.066 168.55 129.222 166.122 130.643C163.692 132.065 162.859 135.215 164.26 137.68L165.805 140.396ZM267.256 142.284C268.056 142.752 268.929 142.975 269.791 142.975C271.546 142.975 273.253 142.05 274.194 140.398L275.74 137.682C277.142 135.218 276.31 132.067 273.88 130.645C271.451 129.223 268.345 130.067 266.942 132.531L265.397 135.246C263.994 137.71 264.827 140.861 267.256 142.284ZM306.253 179.952C307.115 179.952 307.989 179.729 308.789 179.26L311.466 177.692C313.895 176.269 314.727 173.118 313.324 170.654C311.921 168.191 308.815 167.346 306.386 168.77L303.709 170.338C301.28 171.761 300.448 174.911 301.85 177.376C302.791 179.028 304.498 179.952 306.253 179.952ZM319.456 271.321C312.86 284.58 294.431 293.488 273.595 293.488C259.312 293.488 245.933 289.309 236.837 282.154C231.626 285.777 226.125 288.109 220.675 288.821C220.427 288.854 220.178 288.866 219.937 288.864C219.734 288.862 219.53 288.848 219.326 288.821C213.875 288.108 208.374 285.776 203.163 282.154C194.068 289.31 180.689 293.488 166.405 293.488C145.57 293.488 127.14 284.58 120.545 271.321C119.819 269.862 119.818 268.139 120.545 266.68C125.411 256.894 136.539 249.474 150.62 246.259C143.313 235.731 140.645 223.292 143.954 212.652C144.36 211.349 145.258 210.263 146.452 209.632C154.797 205.222 165.381 204.903 175.684 208.565C177.213 203.426 179.62 198.954 182.881 195.468C183.997 194.275 185.608 193.695 187.214 193.905C189.879 194.253 192.554 194.989 195.203 196.073C200.577 184.552 208.497 175.961 217.88 171.594C219.225 170.967 220.772 170.967 222.117 171.594C231.497 175.959 239.415 184.544 244.79 196.057C247.439 194.983 250.117 194.255 252.786 193.905C254.394 193.695 256.004 194.275 257.119 195.468C260.381 198.954 262.787 203.426 264.317 208.564C274.62 204.902 285.203 205.223 293.548 209.632C294.741 210.263 295.639 211.349 296.045 212.65C299.355 223.292 296.687 235.73 289.379 246.257C303.462 249.473 314.59 256.893 319.456 266.678C320.181 268.139 320.181 269.862 319.456 271.321ZM257.959 256.707C263.475 255.317 268.954 252.454 273.78 248.347C283.637 239.957 288.8 227.742 286.888 217.87C280.922 215.519 273.481 215.884 266.148 218.869C266.853 228.488 265.143 239.369 260.918 250.078C260.02 252.354 259.03 254.568 257.959 256.707ZM204.109 201.092C209.96 205.317 215.418 211.165 219.989 218.161C224.584 211.09 230.036 205.252 235.873 201.051C231.961 192.478 226.362 185.772 220 182.067C213.627 185.779 208.021 192.5 204.109 201.092ZM166.219 248.346C171.044 252.454 176.525 255.318 182.041 256.707C180.97 254.567 179.981 252.355 179.082 250.077C174.858 239.369 173.148 228.487 173.852 218.869C166.519 215.883 159.078 215.518 153.111 217.869C151.199 227.741 156.362 239.957 166.219 248.346ZM195.14 275.322C192.953 273.09 190.863 270.626 188.905 267.964C178.84 267.789 168.341 263.604 159.689 256.24C159.325 255.93 158.967 255.617 158.614 255.3C146.243 256.854 135.876 262.026 130.998 268.999C136.928 277.46 150.949 283.185 166.404 283.185C177.376 283.185 187.87 280.25 195.14 275.322ZM218.026 236.478C212.965 223.646 204.502 213.064 195.607 207.723C195.358 207.604 195.124 207.466 194.903 207.313C192.798 206.117 190.674 205.219 188.568 204.656C186.463 207.71 185.053 211.617 184.352 216.067C184.334 216.339 184.294 216.61 184.233 216.879C183.06 225.475 184.459 235.974 188.512 246.25C192.603 256.62 198.914 265.52 205.88 271.372C206.043 271.491 206.2 271.621 206.35 271.762C210.125 274.846 214.08 277.033 217.97 278.073C224.212 269.02 224.337 252.477 218.026 236.478ZM251.487 246.249C255.539 235.978 256.937 225.481 255.768 216.887C255.704 216.611 255.664 216.333 255.646 216.055C254.944 211.609 253.535 207.706 251.43 204.654C249.356 205.207 247.261 206.085 245.181 207.252C244.906 207.453 244.607 207.628 244.287 207.773C237.378 211.939 230.71 219.273 225.691 228.509C226.313 229.863 226.902 231.244 227.457 232.651C233.216 247.251 234.302 262.172 230.967 273.779C231.874 273.155 232.774 272.477 233.663 271.75C233.804 271.619 233.951 271.497 234.103 271.386C241.075 265.532 247.394 256.626 251.487 246.249ZM309.002 268.999C304.124 262.026 293.755 256.855 281.384 255.3C281.031 255.617 280.672 255.93 280.309 256.24C271.657 263.603 261.158 267.788 251.094 267.963C249.136 270.626 247.047 273.09 244.86 275.322C252.13 280.249 262.625 283.184 273.595 283.184C289.049 283.185 303.071 277.46 309.002 268.999ZM269.236 307.104C267.121 305.235 263.913 305.46 262.07 307.605C258.867 311.335 243.697 316.587 220 316.587C196.302 316.587 181.132 311.335 177.93 307.605C176.087 305.46 172.879 305.235 170.764 307.104C168.649 308.973 168.428 312.227 170.27 314.372C178.205 323.613 202.018 326.891 220.001 326.891C237.982 326.891 261.796 323.612 269.731 314.372C271.572 312.226 271.351 308.973 269.236 307.104ZM153.233 198.095C155.931 198.866 158.738 197.271 159.499 194.533C167.091 167.198 191.97 148.107 220 148.107C248.03 148.107 272.909 167.198 280.501 194.533C281.132 196.805 283.17 198.289 285.387 198.289C285.843 198.289 286.307 198.226 286.767 198.095C289.467 197.323 291.039 194.477 290.278 191.739C281.458 159.982 252.558 137.803 220 137.803C187.441 137.803 158.542 159.982 149.722 191.739C148.961 194.477 150.533 197.323 153.233 198.095ZM220 309.576C224.363 309.576 239.005 309.104 244.217 303.031C246.058 300.885 245.837 297.631 243.721 295.763C241.617 293.904 238.43 294.117 236.584 296.233C235.426 297.3 229.414 299.272 220 299.272C210.584 299.272 204.571 297.3 203.414 296.232C201.568 294.118 198.382 293.904 196.278 295.763C194.162 297.632 193.941 300.887 195.783 303.032C200.996 309.104 215.637 309.576 220 309.576ZM128.534 177.691L131.209 179.26C132.009 179.729 132.883 179.952 133.746 179.952C135.5 179.952 137.207 179.028 138.148 177.376C139.552 174.913 138.72 171.761 136.291 170.338L133.616 168.77C131.189 167.347 128.081 168.189 126.678 170.653C125.274 173.116 126.105 176.268 128.534 177.691Z" fill="white"/>
</g>
<defs>
<filter id="filter0_d_1_12" x="0" y="0" width="440" height="450.891" filterUnits="userSpaceOnUse" color-interpolation-filters="sRGB">
<feFlood flood-opacity="0" result="BackgroundImageFix"/>
<feColorMatrix in="SourceAlpha" type="matrix" values="0 0 0 0 0 0 0 0 0 0 0 0 0 0 0 0 0 0 127 0" result="hardAlpha"/>
<feOffset dy="4"/>
<feGaussianBlur stdDeviation="60"/>
<feColorMatrix type="matrix" values="0 0 0 0 1 0 0 0 0 1 0 0 0 0 1 0 0 0 0.5 0"/>
<feBlend mode="normal" in2="BackgroundImageFix" result="effect1_dropShadow_1_12"/>
<feBlend mode="normal" in="SourceGraphic" in2="effect1_dropShadow_1_12" result="shape"/>
</filter>
</defs>
</svg>
